<svg width="224" height="224" viewBox="-26 0 224 224" fill="none" xmlns="http://www.w3.org/2000/svg">
<circle cx="86" cy="112" r="112" fill="white"/>
<path d="M28.3262 155.491C29.0667 160.718 30.3627 165.758 33.5102 170.051C34.8062 171.731 35.917 173.411 37.213 174.904C51.8393 181.811 68.317 185.731 85.5353 185.731C102.939 185.731 119.416 181.811 134.228 174.718C134.413 174.531 134.598 174.158 134.968 173.971C139.782 168.558 142.374 162.211 143.3 155.118C127.007 166.504 107.012 173.224 85.7205 173.224C64.429 173.411 44.8039 166.878 28.3262 155.491Z" fill="black"/>
<path d="M85.7207 130.476C118.306 130.476 144.781 103.783 144.781 70.9295C144.781 38.0761 118.306 11.3828 85.7207 11.3828C53.1356 11.3828 26.6602 38.0761 26.6602 70.9295C26.6602 103.783 53.1356 130.476 85.7207 130.476ZM85.7207 18.4761C114.418 18.4761 137.746 41.9961 137.746 70.9295C137.746 99.8628 114.418 123.383 85.7207 123.383C57.0236 123.383 33.6956 99.8628 33.6956 70.9295C33.6956 41.9961 57.0236 18.4761 85.7207 18.4761Z" fill="black"/>
<path d="M153.299 95.1924C152.559 95.1924 151.077 95.5658 149.781 95.7524C139.784 121.699 114.789 139.992 85.7221 139.992C56.6546 139.992 31.6604 121.512 21.8478 95.5658C20.3667 95.3791 19.0707 95.1924 18.5152 95.1924C16.4787 95.0058 14.4421 95.7524 12.9609 97.2458C23.6992 127.299 52.2112 148.952 85.9072 148.952C119.418 148.952 148.115 127.299 158.854 97.0591C157.187 95.7524 155.336 95.0058 153.299 95.1924Z" fill="black"/>
<path d="M85.7209 156.793C54.4317 156.793 27.0306 139.619 12.4043 114.419C12.4043 114.606 12.4043 114.793 12.5894 114.793C14.4409 121.886 16.2923 129.166 18.1437 136.259C18.3289 137.193 18.6992 137.939 19.0694 138.686C21.2912 142.419 22.7723 143.539 27.2157 142.233C27.4009 143.913 27.586 145.779 27.7712 147.459C43.8786 159.966 64.0592 167.433 85.906 167.433C107.938 167.433 128.304 159.779 144.596 147.086C144.781 145.593 144.967 143.913 145.337 142.419C145.522 142.419 145.707 142.419 145.892 142.419C149.78 142.979 151.817 141.859 153.113 138.313C154.224 135.326 154.779 132.153 155.52 129.166C156.816 124.126 158.297 118.899 159.593 113.859C144.781 139.433 117.195 156.793 85.7209 156.793Z" fill="black"/>
<path d="M85.7216 75.0336C87.9433 75.0336 89.7947 73.167 89.7947 70.927C89.7947 68.687 87.9433 66.8203 85.7216 66.8203C83.4999 66.8203 81.6484 68.687 81.6484 70.927C81.6484 73.167 83.4999 75.0336 85.7216 75.0336Z" fill="black"/>
<path d="M85.7206 93.5161C98.1252 93.5161 108.123 83.4361 108.123 70.9294C108.123 58.4228 98.1252 48.3428 85.7206 48.3428C73.3161 48.3428 63.3184 58.4228 63.3184 70.9294C63.3184 83.4361 73.3161 93.5161 85.7206 93.5161ZM85.7206 51.8894C96.0886 51.8894 104.605 60.4761 104.605 70.9294C104.605 81.3828 96.0886 89.9694 85.7206 89.9694C75.3526 89.9694 67.0212 81.3828 67.0212 70.9294C67.0212 60.4761 75.3526 51.8894 85.7206 51.8894Z" fill="black"/>
<path d="M85.7197 111.993C108.122 111.993 126.451 93.5127 126.451 70.926C126.451 48.3394 108.122 29.8594 85.7197 29.8594C63.3174 29.8594 44.9883 48.3394 44.9883 70.926C44.9883 93.5127 63.3174 111.993 85.7197 111.993ZM85.7197 35.2727C105.16 35.2727 121.082 51.326 121.082 70.926C121.082 90.526 105.16 106.579 85.7197 106.579C66.2797 106.579 50.3574 90.526 50.3574 70.926C50.3574 51.326 66.2797 35.2727 85.7197 35.2727Z" fill="black"/>
<path d="M43.5078 182.367C49.4324 188.901 55.357 195.621 61.2815 202.154C61.2815 202.154 61.2815 202.154 61.4667 202.341C69.2427 203.834 77.389 204.581 85.7204 204.581C94.0518 204.581 102.198 203.834 109.974 202.341C115.899 195.807 121.823 189.087 127.748 182.554C114.603 187.594 100.532 190.394 85.7204 190.394C70.909 190.207 56.653 187.407 43.5078 182.367Z" fill="black"/>
<path d="M64.6152 205.14C69.4289 209.433 74.9832 212.046 81.6484 212.233C81.8335 212.233 82.2038 212.42 82.3889 212.42C84.6107 212.42 86.8324 212.42 89.0541 212.42C90.5352 212.233 92.2015 211.86 93.6827 211.673C98.8667 210.74 103.31 208.5 107.013 204.953C99.9775 206.073 92.9421 206.633 85.5364 206.633C78.5009 206.82 71.4655 206.26 64.6152 205.14Z" fill="black"/>
</svg>
