<svg width="648" height="224" viewBox="0 0 648 224" fill="none" xmlns="http://www.w3.org/2000/svg">
<path d="M28.3262 155.491C29.0667 160.718 30.3627 165.758 33.5102 170.051C34.8062 171.731 35.917 173.411 37.213 174.904C51.8393 181.811 68.317 185.731 85.5353 185.731C102.939 185.731 119.416 181.811 134.228 174.718C134.413 174.531 134.598 174.158 134.968 173.971C139.782 168.558 142.374 162.211 143.3 155.118C127.007 166.504 107.012 173.224 85.7205 173.224C64.429 173.411 44.8039 166.878 28.3262 155.491Z" fill="#ffffff"/>
<path d="M85.7207 130.476C118.306 130.476 144.781 103.783 144.781 70.9295C144.781 38.0761 118.306 11.3828 85.7207 11.3828C53.1356 11.3828 26.6602 38.0761 26.6602 70.9295C26.6602 103.783 53.1356 130.476 85.7207 130.476ZM85.7207 18.4761C114.418 18.4761 137.746 41.9961 137.746 70.9295C137.746 99.8628 114.418 123.383 85.7207 123.383C57.0236 123.383 33.6956 99.8628 33.6956 70.9295C33.6956 41.9961 57.0236 18.4761 85.7207 18.4761Z" fill="#ffffff"/>
<path d="M153.299 95.1924C152.559 95.1924 151.077 95.5658 149.781 95.7524C139.784 121.699 114.789 139.992 85.7221 139.992C56.6546 139.992 31.6604 121.512 21.8478 95.5658C20.3667 95.3791 19.0707 95.1924 18.5152 95.1924C16.4787 95.0058 14.4421 95.7524 12.9609 97.2458C23.6992 127.299 52.2112 148.952 85.9072 148.952C119.418 148.952 148.115 127.299 158.854 97.0591C157.187 95.7524 155.336 95.0058 153.299 95.1924Z" fill="#ffffff"/>
<path d="M85.7209 156.793C54.4317 156.793 27.0306 139.619 12.4043 114.419C12.4043 114.606 12.4043 114.793 12.5894 114.793C14.4409 121.886 16.2923 129.166 18.1437 136.259C18.3289 137.193 18.6992 137.939 19.0694 138.686C21.2912 142.419 22.7723 143.539 27.2157 142.233C27.4009 143.913 27.586 145.779 27.7712 147.459C43.8786 159.966 64.0592 167.433 85.906 167.433C107.938 167.433 128.304 159.779 144.596 147.086C144.781 145.593 144.967 143.913 145.337 142.419C145.522 142.419 145.707 142.419 145.892 142.419C149.78 142.979 151.817 141.859 153.113 138.313C154.224 135.326 154.779 132.153 155.52 129.166C156.816 124.126 158.297 118.899 159.593 113.859C144.781 139.433 117.195 156.793 85.7209 156.793Z" fill="#ffffff"/>
<path d="M85.7216 75.0336C87.9433 75.0336 89.7947 73.167 89.7947 70.927C89.7947 68.687 87.9433 66.8203 85.7216 66.8203C83.4999 66.8203 81.6484 68.687 81.6484 70.927C81.6484 73.167 83.4999 75.0336 85.7216 75.0336Z" fill="#ffffff"/>
<path d="M85.7206 93.5161C98.1252 93.5161 108.123 83.4361 108.123 70.9294C108.123 58.4228 98.1252 48.3428 85.7206 48.3428C73.3161 48.3428 63.3184 58.4228 63.3184 70.9294C63.3184 83.4361 73.3161 93.5161 85.7206 93.5161ZM85.7206 51.8894C96.0886 51.8894 104.605 60.4761 104.605 70.9294C104.605 81.3828 96.0886 89.9694 85.7206 89.9694C75.3526 89.9694 67.0212 81.3828 67.0212 70.9294C67.0212 60.4761 75.3526 51.8894 85.7206 51.8894Z" fill="#ffffff"/>
<path d="M85.7197 111.993C108.122 111.993 126.451 93.5127 126.451 70.926C126.451 48.3394 108.122 29.8594 85.7197 29.8594C63.3174 29.8594 44.9883 48.3394 44.9883 70.926C44.9883 93.5127 63.3174 111.993 85.7197 111.993ZM85.7197 35.2727C105.16 35.2727 121.082 51.326 121.082 70.926C121.082 90.526 105.16 106.579 85.7197 106.579C66.2797 106.579 50.3574 90.526 50.3574 70.926C50.3574 51.326 66.2797 35.2727 85.7197 35.2727Z" fill="#ffffff"/>
<path d="M43.5078 182.367C49.4324 188.901 55.357 195.621 61.2815 202.154C61.2815 202.154 61.2815 202.154 61.4667 202.341C69.2427 203.834 77.389 204.581 85.7204 204.581C94.0518 204.581 102.198 203.834 109.974 202.341C115.899 195.807 121.823 189.087 127.748 182.554C114.603 187.594 100.532 190.394 85.7204 190.394C70.909 190.207 56.653 187.407 43.5078 182.367Z" fill="#ffffff"/>
<path d="M64.6152 205.14C69.4289 209.433 74.9832 212.046 81.6484 212.233C81.8335 212.233 82.2038 212.42 82.3889 212.42C84.6107 212.42 86.8324 212.42 89.0541 212.42C90.5352 212.233 92.2015 211.86 93.6827 211.673C98.8667 210.74 103.31 208.5 107.013 204.953C99.9775 206.073 92.9421 206.633 85.5364 206.633C78.5009 206.82 71.4655 206.26 64.6152 205.14Z" fill="#ffffff"/>
<path d="M233.28 29.4922C249.388 29.4922 262.163 43.4922 262.163 59.9189C262.163 76.3455 249.388 90.3455 233.28 90.3455H220.691V106.959H205.139V29.4922H233.28ZM220.691 74.6655H233.28C240.501 74.6655 246.611 68.3189 246.611 59.9189C246.611 51.5189 240.501 45.1722 233.28 45.1722H220.691V74.6655Z" fill="#ffffff"/>
<path d="M320.668 34.9042L311.966 47.7842C308.448 45.5442 304.19 43.4908 298.821 43.4908C294.562 43.4908 289.749 45.9175 289.749 50.5842C289.749 55.0642 297.895 57.6775 302.153 59.1708C314.928 62.7175 325.666 70.5575 325.666 83.6242C325.666 96.3175 315.298 108.824 298.45 108.824C287.342 108.824 279.01 104.717 271.234 98.7442L279.196 85.1175C284.565 89.2242 290.86 92.5842 298.265 92.5842C303.634 92.5842 309.559 89.9708 309.559 83.6242C309.559 77.8375 301.042 75.2242 295.858 73.5442C284.935 70.5575 273.826 63.8375 273.826 50.3975C273.826 37.7042 285.305 27.4375 299.006 27.4375C309.189 27.6242 315.113 31.3575 320.668 34.9042Z" fill="#ffffff"/>
<path d="M347.329 29.4922L364.177 63.4655L381.025 29.4922H398.614L372.138 83.0655V106.959H356.401V83.0655L329.926 29.4922H347.329Z" fill="#ffffff"/>
<path d="M471.375 37.5174L462.303 51.144C457.119 47.0374 450.824 44.424 443.604 44.424C431.014 44.6107 418.609 52.824 418.054 68.3173C418.609 83.8107 430.829 92.024 443.604 92.2107C450.824 92.2107 457.119 89.5973 462.303 85.4907L471.375 99.1173C464.154 105.091 454.712 109.011 443.604 109.011C418.98 109.011 401.576 90.344 401.576 68.3173C401.576 46.2907 418.98 27.624 443.604 27.624C454.712 27.624 463.969 31.544 471.375 37.5174Z" fill="#ffffff"/>
<path d="M498.034 29.4922V60.2922H527.287V29.4922H543.024V106.959H527.287V76.1589H498.034V106.959H482.297V29.4922H498.034Z" fill="#ffffff"/>
<path d="M635.596 68.3173C635.596 90.7173 617.452 109.011 595.05 109.011C572.648 109.011 554.504 90.904 554.504 68.3173C554.504 45.7307 572.648 27.624 595.05 27.624C617.638 27.624 635.596 45.9174 635.596 68.3173ZM570.426 68.3173C570.426 82.1307 581.535 93.3307 595.235 93.3307C608.936 93.3307 620.044 82.1307 620.044 68.3173C620.044 54.504 608.936 43.304 595.235 43.304C581.535 43.304 570.426 54.504 570.426 68.3173Z" fill="#ffffff"/>
<path d="M226.8 122.266C234.947 122.266 241.797 128.986 241.797 137.199C241.797 143.359 237.724 147.279 237.724 147.279C237.724 147.279 251.98 152.132 251.98 167.812C251.98 179.946 241.982 189.839 229.948 189.839L205.139 190.026V122.266H226.8ZM211.434 145.786H226.8C231.614 145.786 235.317 142.052 235.317 137.199C235.317 132.346 231.429 128.612 226.8 128.612H211.434V145.786ZM211.434 183.679L229.948 183.492C239.575 183.492 245.685 175.466 245.685 167.812C245.685 159.039 238.65 152.132 229.948 152.132H226.8H211.434V183.679Z" fill="#ffffff"/>
<path d="M293.453 122.266L317.892 190.026H311.226L304.561 171.546H274.568L267.903 190.026H261.053L285.492 122.266H293.453ZM276.79 165.199H302.154L289.38 130.106L276.79 165.199Z" fill="#ffffff"/>
<path d="M335.85 122.266V183.679H373.989V190.026H329.555V122.266H335.85Z" fill="#ffffff"/>
<path d="M417.312 122.266L441.751 190.026H435.086L428.421 171.546H398.428L391.763 190.026H385.098L409.537 122.266H417.312ZM400.65 165.199H426.014L413.239 130.106L400.65 165.199Z" fill="#ffffff"/>
<path d="M459.894 122.266L502.477 179.199V122.266H508.772V190.026H502.292L459.709 132.906V190.026H453.414V122.266H459.894Z" fill="#ffffff"/>
<path d="M580.793 127.675L577.275 133.088C572.091 129.355 565.796 127.115 558.761 127.115C543.764 127.301 528.583 137.755 528.027 156.235C528.212 172.288 540.987 184.981 558.761 185.355C565.796 185.355 572.091 183.115 577.275 179.381L580.793 184.795C574.683 189.275 566.907 191.888 558.761 191.888C536.544 191.888 521.732 175.835 521.732 156.421C521.732 137.008 536.544 120.955 558.761 120.955C566.907 120.768 574.683 123.381 580.793 127.675Z" fill="#ffffff"/>
<path d="M635.595 122.266V128.612H599.307V152.879H634.484V159.226H599.307V183.492H635.595V189.839H593.012V122.266H635.595Z" fill="#ffffff"/>
</svg>
